<svg id="Layer_1" enable-background="new 0 0 48 48" viewBox="0 0 48 48" xmlns="http://www.w3.org/2000/svg"><path d="m40 12c.5527344 0 1-.4477539 1-1v-4c0-.5522461-.4472656-1-1-1h-8v-1c0-1.6542969-1.3457031-3-3-3h-10c-1.6542969 0-3 1.3457031-3 3v1h-8c-.5522461 0-1 .4477539-1 1v4c0 .5522461.4477539 1 1 1h2.0715332l1.8518066 25h-.9233398c-.4589844 0-.8588867.3125-.9702148.7578125l-.8105469 3.2421875h-1.2192383c-.5522461 0-1 .4472656-1 1v3c0 .5527344.4477539 1 1 1h32c.5527344 0 1-.4472656 1-1v-3c0-.5527344-.4472656-1-1-1h-1.2191162l-.8111572-3.2421875c-.1113282-.4453125-.5107422-.7578125-.9697266-.7578125h-.9233398l1.8518066-25zm-22-7c0-.5512695.4487305-1 1-1h10c.5517578 0 1 .4487305 1 1v1h-12zm-9 3h8 14 8v2h-2-26-2zm30 36h-30v-1h1 28c.0068359.0009766.0146484.0009766.0195313 0h.9804687zm-2.28125-3h-25.4379883l.5-2h1.2192383 5 4 .0200195 3.9799805 4 5 1.21875zm-18.6743164-25h1.9980469l.9130859 21h-1.9980469zm10.9985352 21h-1.9990234l.9130859-21h1.9990234zm5.0283203 0h-3.0269165l.9546509-21.956543c.0117188-.2724609-.0878906-.5380859-.2763672-.7348633-.1894532-.1972656-.4501954-.3085937-.7226563-.3085937h-4c-.5351563 0-.9755859.421875-.9990234.956543l-.9583741 22.043457h-2.0853271l-.958252-22.043457c-.0234375-.534668-.4638671-.956543-.9990234-.956543h-4c-.2729492 0-.5336914.1113281-.722168.3085938-.1889648.1967773-.2885742.4624023-.2768555.7348633l.9546509 21.9565429h-3.0269165l-1.8520508-25h23.8461914z"/></svg>